<svg xmlns="http://www.w3.org/2000/svg" xmlns:xlink="http://www.w3.org/1999/xlink" version="1.1" x="0px" y="0px" viewBox="0 0 30 30" enable-background="new 0 0 30 30" xml:space="preserve">
<g id="Background_xA0_Image_1_">
</g>
    <g id="Row_1_1_">
	<g>
		<path fill="#FFFFFF" d="M26,1H5C3.3,1,2,2.3,2,4v21c0,1.7,1.3,3,3,3h10.5V17.5h-3v-3.7h3v-3.1c0-3.2,1.8-5.5,5.6-5.5l2.7,0v3.9    h-1.8c-1.5,0-2.1,1.1-2.1,2.2v2.5h3.9L23,17.5h-3V28h6c1.7,0,3-1.3,3-3V4C29,2.3,27.7,1,26,1z"/>
	</g>
</g>
    <p xmlns=""/><p xmlns=""/></svg>
